<?xml version="1.0" standalone="no"?>
<!DOCTYPE svg PUBLIC "-//W3C//DTD SVG 20010904//EN"
 "http://www.w3.org/TR/2001/REC-SVG-20010904/DTD/svg10.dtd">
<svg version="1.0" xmlns="http://www.w3.org/2000/svg"
 width="576.000000pt" height="576.000000pt" viewBox="0 0 576.000000 576.000000"
 preserveAspectRatio="xMidYMid meet">
<metadata>
Created by potrace 1.11, written by Peter Selinger 2001-2013
</metadata>
<g transform="translate(0.000000,576.000000) scale(0.100000,-0.100000)"
fill="#000000" stroke="none">
<path d="M248 5052 c-16 -2 -28 -7 -28 -12 0 -5 1195 -8 2655 -8 1612 0 2655
3 2655 9 0 5 -37 9 -82 9 -507 3 -5180 4 -5200 2z"/>
<path d="M1197 4664 c-1 -1 -47 -4 -101 -8 -160 -10 -279 -44 -406 -113 -289
-157 -458 -487 -437 -853 23 -394 253 -698 612 -809 129 -40 214 -44 1097 -44
644 0 843 -3 830 -12 -9 -6 -305 -186 -657 -400 -352 -213 -656 -398 -675
-410 -19 -13 -304 -186 -632 -386 -329 -199 -596 -364 -593 -367 2 -2 85 -4
185 -3 l180 2 963 591 c529 325 1009 620 1067 655 58 36 163 100 233 144 71
43 130 79 133 79 2 0 4 -331 4 -735 l0 -735 1260 0 c1193 0 1260 1 1261 18 1
21 1 190 0 215 -1 16 -62 17 -1136 17 l-1135 0 0 663 0 663 1131 -1 c671 0
1133 4 1137 9 9 15 8 288 -2 293 -5 3 -517 6 -1137 6 l-1129 0 0 633 0 634
233 1 c127 1 638 1 1135 2 861 1 902 2 903 19 1 23 1 181 0 211 l-1 22 -2161
0 c-1188 0 -2161 -1 -2162 -1z m1801 -914 l-3 -665 -930 0 c-511 0 -962 3
-1000 7 -152 16 -267 70 -375 178 -131 130 -192 282 -192 480 0 367 242 633
601 658 53 4 502 7 999 7 l902 0 -2 -665z"/>
<path d="M220 879 c0 -5 24 -9 53 -9 67 -1 5134 -1 5205 0 28 0 52 4 52 9 0 6
-1054 9 -2655 9 -1594 0 -2655 -3 -2655 -9z"/>
</g>
</svg>
